<?xml version="1.0" encoding="utf-8"?>
<!-- Generator: Adobe Illustrator 16.0.0, SVG Export Plug-In . SVG Version: 6.00 Build 0)  -->
<!DOCTYPE svg PUBLIC "-//W3C//DTD SVG 1.1//EN" "http://www.w3.org/Graphics/SVG/1.1/DTD/svg11.dtd">
<svg version="1.1" id="Layer_1" xmlns="http://www.w3.org/2000/svg" xmlns:xlink="http://www.w3.org/1999/xlink" x="0px" y="0px"
	 width="100px" height="100px" viewBox="0 0 100 100" enable-background="new 0 0 100 100" xml:space="preserve">
<path fill-rule="evenodd" clip-rule="evenodd" fill="#3FC5F0" d="M21.479,36.94c0.878,0.391,1.698,0.791,2.543,1.127
	c3.192,1.268,6.534,1.964,9.912,2.483c8.258,1.268,16.56,1.391,24.88,0.834c4.746-0.317,9.443-0.97,14.044-2.215
	c1.917-0.518,3.782-1.179,5.541-2.115c0.084-0.044,0.175-0.077,0.323-0.141c0,0.232,0,0.41,0,0.588
	c0,9.606,0.002,19.212-0.012,28.819c0,0.271-0.157,0.545-0.258,0.811c-0.116,0.309-0.331,0.602-0.359,0.914
	c-0.047,0.511-0.292,0.87-0.704,1.075c-1.129,0.562-2.245,1.183-3.432,1.587c-3.306,1.124-6.73,1.759-10.187,2.21
	c-6.498,0.847-13.024,0.97-19.561,0.676c-5.772-0.261-11.495-0.925-17.049-2.6c-1.407-0.425-2.744-1.094-4.088-1.706
	c-0.552-0.252-0.993-0.666-0.983-1.382c0.003-0.199-0.098-0.447-0.236-0.592c-0.392-0.402-0.379-0.879-0.379-1.384
	c0.006-9.474,0.005-18.946,0.005-28.419C21.479,37.331,21.479,37.151,21.479,36.94z M50.082,45.278
	C43.63,45.29,38.39,50.541,38.399,56.987c0.009,6.45,5.25,11.666,11.72,11.663c6.493-0.003,11.709-5.229,11.701-11.726
	C61.812,50.488,56.549,45.267,50.082,45.278z"/>
<path fill-rule="evenodd" clip-rule="evenodd" fill="#3FC5F0" d="M78.721,13.64c0,0.158,0,0.315,0,0.473
	c0,5.326,0.004,10.652-0.011,15.979c-0.001,0.272-0.152,0.547-0.253,0.814c-0.115,0.309-0.333,0.602-0.359,0.915
	c-0.044,0.512-0.319,0.818-0.693,1.091c-1.077,0.789-2.313,1.243-3.564,1.648c-3.915,1.266-7.949,1.954-12.029,2.392
	c-5.594,0.601-11.204,0.727-16.821,0.484c-5.97-0.257-11.891-0.888-17.653-2.577c-1.487-0.436-2.955-0.927-4.274-1.771
	c-0.52-0.333-0.971-0.69-0.976-1.398c-0.001-0.215-0.116-0.472-0.264-0.634c-0.336-0.369-0.349-0.789-0.349-1.245
	c0.007-5.227,0.004-10.453,0.005-15.679c0-0.164,0-0.327,0-0.626c0.845,1.747,2.344,2.508,3.881,3.192
	c2.71,1.207,5.581,1.879,8.49,2.379c8.942,1.54,17.932,1.672,26.943,0.78c4.198-0.417,8.36-1.086,12.356-2.5
	c1.154-0.408,2.268-0.958,3.351-1.534C77.429,15.331,78.227,14.648,78.721,13.64z"/>
<path fill-rule="evenodd" clip-rule="evenodd" fill="#3FC5F0" d="M78.721,73.063c0,0.234,0,0.397,0,0.56
	c0,4.495-0.021,8.989,0.016,13.484c0.01,1.086-0.401,1.894-1.189,2.563c-1.252,1.064-2.736,1.7-4.263,2.243
	c-3.089,1.101-6.29,1.725-9.526,2.179c-6.224,0.872-12.479,1.083-18.75,0.783c-5.5-0.263-10.959-0.858-16.278-2.376
	c-1.765-0.504-3.493-1.112-5.058-2.094c-0.448-0.281-0.871-0.615-1.263-0.972c-0.647-0.588-0.946-1.315-0.941-2.218
	c0.023-4.527,0.011-9.055,0.011-13.583c0-0.164,0-0.328,0-0.488c0.067-0.01,0.107-0.029,0.129-0.017
	c3.104,1.712,6.5,2.534,9.94,3.193c6.887,1.321,13.851,1.643,20.845,1.534c4.469-0.07,8.923-0.353,13.343-1.034
	c3.839-0.593,7.645-1.333,11.236-2.893c0.289-0.126,0.574-0.265,0.857-0.404C78.108,73.386,78.383,73.238,78.721,73.063z"/>
<path fill-rule="evenodd" clip-rule="evenodd" fill="#3FC5F0" d="M50.118,40.872c-6.292-0.015-12.552-0.423-18.743-1.615
	c-3.031-0.583-6.036-1.295-8.785-2.749c-0.987-0.522-1.892-1.234-2.747-1.962c-0.669-0.571-1.044-1.374-1.068-2.292
	c-0.02-0.74,0.465-1.305,1.168-1.368c0.697-0.063,1.307,0.421,1.371,1.153c0.058,0.664,0.395,1.168,0.928,1.458
	c1.121,0.608,2.25,1.233,3.444,1.667c3.317,1.203,6.777,1.831,10.265,2.297c6.442,0.862,12.915,1.08,19.402,0.78
	c5.717-0.264,11.402-0.827,16.934-2.382c1.563-0.439,3.075-1.072,4.584-1.683c0.511-0.207,0.998-0.559,1.388-0.952
	c0.294-0.295,0.501-0.741,0.596-1.155c0.17-0.746,0.712-1.255,1.42-1.182c0.725,0.075,1.186,0.647,1.146,1.433
	c-0.047,0.915-0.483,1.649-1.098,2.29c-1.203,1.255-2.725,2.009-4.307,2.648c-3.187,1.288-6.532,1.959-9.91,2.478
	C60.81,40.55,55.476,40.876,50.118,40.872z"/>
<path fill-rule="evenodd" clip-rule="evenodd" fill="#3FC5F0" d="M50.089,77.059c-6.343-0.015-12.652-0.43-18.888-1.646
	c-2.963-0.579-5.887-1.302-8.605-2.671c-1.123-0.566-2.175-1.232-2.984-2.22c-0.474-0.579-0.798-1.226-0.835-1.99
	c-0.038-0.779,0.438-1.361,1.159-1.418c0.745-0.061,1.31,0.398,1.386,1.182c0.057,0.583,0.375,0.985,0.8,1.326
	c1.03,0.825,2.24,1.304,3.47,1.727c3.528,1.212,7.171,1.91,10.861,2.378c7.081,0.898,14.187,1.03,21.303,0.573
	c5.43-0.348,10.814-1.023,16.023-2.681c1.184-0.377,2.332-0.889,3.449-1.434c0.879-0.429,1.618-1.021,1.705-2.159
	c0.045-0.593,0.728-0.972,1.362-0.91c0.615,0.059,1.084,0.521,1.124,1.141c0.057,0.862-0.283,1.595-0.813,2.244
	c-0.997,1.222-2.335,1.967-3.739,2.6c-2.845,1.28-5.864,1.967-8.917,2.514C62.043,76.671,56.081,77.051,50.089,77.059z"/>
<path fill-rule="evenodd" clip-rule="evenodd" fill="#3FC5F0" d="M50.073,19.183c-5.692-0.029-11.356-0.394-16.951-1.505
	c-2.781-0.552-5.535-1.223-8.052-2.589c-0.664-0.36-1.303-0.82-1.842-1.349c-1.025-1.005-1-2.185-0.007-3.224
	c1.04-1.087,2.38-1.692,3.751-2.222c2.89-1.117,5.907-1.734,8.958-2.194c6.417-0.966,12.872-1.189,19.344-0.875
	c5.268,0.256,10.496,0.826,15.593,2.269c1.638,0.464,3.245,1.018,4.704,1.914c0.492,0.302,0.972,0.655,1.379,1.063
	c1.075,1.072,1.108,2.308-0.014,3.319c-0.73,0.658-1.591,1.217-2.477,1.648c-2.473,1.205-5.139,1.824-7.826,2.333
	C61.163,18.808,55.632,19.162,50.073,19.183z M50.123,17.628c5.873-0.022,11.722-0.341,17.503-1.447
	c2.21-0.422,4.409-0.916,6.424-1.961c0.58-0.301,1.127-0.717,1.585-1.183c0.54-0.547,0.522-1.224,0.008-1.8
	c-0.327-0.366-0.715-0.734-1.152-0.933c-1.146-0.522-2.307-1.052-3.513-1.402c-4.196-1.219-8.519-1.701-12.86-1.983
	c-7.516-0.488-15.019-0.375-22.49,0.67c-2.872,0.402-5.73,0.904-8.431,2.006c-0.821,0.335-1.623,0.792-2.318,1.338
	c-0.922,0.725-0.906,1.666-0.006,2.413c0.543,0.451,1.17,0.831,1.813,1.125c2.06,0.938,4.258,1.419,6.473,1.818
	C38.768,17.302,44.434,17.612,50.123,17.628z"/>
<path fill-rule="evenodd" clip-rule="evenodd" fill="#3FC5F0" d="M50.105,50.313c-1.252,2.041-2.553,4.145-3.834,6.26
	c-0.257,0.425-0.478,0.879-0.649,1.344c-0.84,2.289,0.312,4.813,2.624,5.585c0.767,0.256,1.638,0.359,2.446,0.305
	c3.193-0.212,5.048-3.351,3.75-6.264c-0.209-0.47-0.459-0.924-0.727-1.362C52.504,54.195,51.281,52.221,50.105,50.313z"/>
<path fill-rule="evenodd" clip-rule="evenodd" fill="#3FC5F0" d="M35.443,10.634c-1.206,0.125-2.3,0.215-3.385,0.364
	c-0.489,0.067-0.972,0.224-1.439,0.393c-0.366,0.132-0.879,0.292-0.793,0.75c0.054,0.284,0.48,0.521,0.776,0.728
	c0.183,0.127,0.431,0.171,0.656,0.228c2.329,0.578,4.679,0.59,7.036,0.228c0.571-0.088,1.136-0.252,1.686-0.433
	c0.387-0.126,0.882-0.278,0.87-0.769c-0.013-0.479-0.508-0.61-0.892-0.761c-0.293-0.115-0.597-0.226-0.906-0.269
	C37.818,10.92,36.582,10.776,35.443,10.634z M64.57,13.638c1.257-0.108,2.176-0.138,3.076-0.282
	c0.732-0.117,1.457-0.332,2.157-0.582c0.257-0.092,0.624-0.436,0.599-0.619c-0.034-0.253-0.354-0.527-0.619-0.674
	c-0.341-0.191-0.739-0.302-1.126-0.384c-2.256-0.482-4.526-0.499-6.798-0.141c-0.555,0.087-1.104,0.243-1.639,0.419
	c-0.388,0.127-0.922,0.299-0.849,0.764c0.046,0.288,0.517,0.528,0.827,0.745c0.169,0.119,0.398,0.176,0.608,0.208
	C62.169,13.297,63.532,13.489,64.57,13.638z"/>
<path fill-rule="evenodd" clip-rule="evenodd" fill="#3FC5F0" d="M50.105,50.313c1.176,1.908,2.398,3.883,3.609,5.867
	c0.268,0.438,0.518,0.893,0.727,1.362c1.298,2.913-0.557,6.052-3.75,6.264c-0.808,0.055-1.679-0.049-2.446-0.305
	c-2.312-0.771-3.463-3.296-2.624-5.585c0.171-0.465,0.392-0.919,0.649-1.344C47.552,54.457,48.853,52.354,50.105,50.313z"/>
<path fill-rule="evenodd" clip-rule="evenodd" fill="#3FC5F0" d="M35.443,10.634c1.139,0.142,2.375,0.287,3.608,0.458
	c0.309,0.043,0.613,0.154,0.906,0.269c0.383,0.15,0.879,0.282,0.892,0.761c0.013,0.491-0.483,0.643-0.87,0.769
	c-0.55,0.181-1.115,0.345-1.686,0.433c-2.357,0.363-4.708,0.351-7.036-0.228c-0.225-0.056-0.473-0.1-0.656-0.228
	c-0.296-0.206-0.723-0.443-0.776-0.728c-0.086-0.458,0.428-0.619,0.793-0.75c0.467-0.169,0.95-0.326,1.439-0.393
	C33.143,10.849,34.237,10.759,35.443,10.634z"/>
<path fill-rule="evenodd" clip-rule="evenodd" fill="#3FC5F0" d="M64.57,13.638c-1.038-0.149-2.401-0.341-3.763-0.547
	c-0.21-0.032-0.439-0.09-0.608-0.208c-0.311-0.217-0.781-0.457-0.827-0.745c-0.073-0.464,0.461-0.637,0.849-0.764
	c0.535-0.176,1.084-0.332,1.639-0.419c2.271-0.358,4.542-0.341,6.798,0.141c0.387,0.083,0.785,0.193,1.126,0.384
	c0.265,0.147,0.585,0.421,0.619,0.674c0.025,0.183-0.342,0.527-0.599,0.619c-0.7,0.25-1.425,0.465-2.157,0.582
	C66.746,13.5,65.827,13.53,64.57,13.638z"/>
</svg>
