<?xml version="1.0" encoding="utf-8"?>
<!-- Generator: Adobe Illustrator 16.0.0, SVG Export Plug-In . SVG Version: 6.00 Build 0)  -->
<!DOCTYPE svg PUBLIC "-//W3C//DTD SVG 1.1//EN" "http://www.w3.org/Graphics/SVG/1.1/DTD/svg11.dtd">
<svg version="1.1" id="Layer_1" xmlns="http://www.w3.org/2000/svg" xmlns:xlink="http://www.w3.org/1999/xlink" x="0px" y="0px"
	 width="100px" height="100px" viewBox="0 0 100 100" enable-background="new 0 0 100 100" xml:space="preserve">
<path fill="#3FC5F0" d="M76.095,41.869c1.436-0.379,1.979-1.506,2.781-2.411c-0.618-1.542-1.852-2.35-2.742-3.454
	c-1.119-1.404-1.199-2.269-0.055-3.579c1.592-1.814,3.29-3.521,4.938-5.283c0.809-0.873,1.574-1.71,1.882-3.036
	c0.231-1.004,0.95-1.966,1.661-2.746c2.178-2.419,4.441-4.758,6.688-7.104c0.493-0.513,1.034-1.015,1.637-1.379
	c1.283-0.771,2.828-0.485,3.878,0.613c1.034,1.075,1.313,2.729,0.616,4.088c-0.275,0.533-0.648,1.033-1.05,1.464
	c-2.395,2.555-4.789,5.094-7.205,7.613c-0.41,0.434-0.856,1.012-1.369,1.128c-3.119,0.709-4.74,3.422-6.809,5.53
	c-0.163,0.164-0.247,0.417-0.432,0.755c0.331,1.46,1.65,2.203,2.531,3.297c1.222,1.526,1.314,2.449,0,3.856
	c-3.923,4.206-7.813,8.45-12.055,12.616c0.314,0.228,0.65,0.644,1.026,0.685c0.542,0.049,1.203-0.016,1.654-0.302
	c0.695-0.448,1.249-1.109,1.838-1.721c1.651-1.722,3.305-3.468,5.112-5.37c0.741,0.685,1.359,1.195,1.916,1.771
	c1.666,1.733,3.363,3.442,4.943,5.261c0.862,0.997,1.658,2.105,2.199,3.306c0.934,2.089,0.409,4.233-1.353,5.607
	c-0.909,0.726-2.017,1.293-3.118,1.61c-9.131,2.683-18.288,5.289-27.44,7.886c-0.89,0.246-1.846,0.361-2.772,0.361
	c-2.904-0.034-4.634-1.781-4.688-4.793c-0.024-1.213,0.115-2.484,0.417-3.663c2.354-9.316,4.75-18.62,7.174-27.919
	c0.309-1.174,0.743-2.375,1.362-3.395c1.434-2.392,3.72-3.016,6.098-1.686c1.007,0.57,1.934,1.381,2.767,2.227
	c2.114,2.14,4.153,4.366,6.24,6.537C74.935,40.837,75.554,41.364,76.095,41.869z"/>
<path fill="#3FC5F0" d="M17.479,23.729c3.151-0.522,26.382-0.547,29.554-0.075c0.645,2.462,0.789,10.993,0.256,15.933
	c-0.477,0.131-1.002,0.413-1.544,0.417c-8.881,0.029-17.77,0.025-26.66,0.013c-0.447,0-0.896-0.138-1.289-0.203
	C17.109,37.235,16.955,28.89,17.479,23.729z"/>
<path fill="#3FC5F0" d="M17.572,82.646c-0.479-3.759-0.455-13.305,0.009-16.31c0.409-0.112,0.856-0.342,1.297-0.342
	c9.014,0,18.017,0,27.023,0.033c0.322,0,0.632,0.251,1.087,0.44c0.881,5.231,0.542,10.5,0.488,15.961
	c-0.789,0.193-1.438,0.498-2.086,0.502c-8.648,0.034-17.313,0.026-25.97,0.011C18.855,82.942,18.289,82.773,17.572,82.646z"/>
<path fill="#3FC5F0" d="M29.975,60.938c-0.725,0.098-1.514,0.258-2.302,0.282c-12.217,0.337-24.349,0.17-27.292-0.357
	c-0.64-2.621-0.695-12.424-0.038-15.881c0.609-0.077,1.281-0.215,1.954-0.235c9.886-0.322,24.79-0.14,27.647,0.326
	C30.594,47.712,30.639,57.58,29.975,60.938z"/>
<path fill="#3FC5F0" d="M52.262,82.461c-0.354-2.135-0.507-4.158,0.157-6.399c4.123,0.572,7.885-0.912,11.709-1.997
	c5.079-1.453,10.161-2.913,15.243-4.335c0.88-0.242,1.793-0.326,2.682-0.479c0.609,2.799,0.688,9.148,0.162,13.18
	c-1.066,0.767-2.379,0.537-3.622,0.537c-7.499,0.025-14.991,0.018-22.481,0.007c-0.818,0-1.637,0.011-2.456-0.071
	C53.221,82.854,52.796,82.641,52.262,82.461z"/>
<path fill="#3FC5F0" d="M48.185,61.083c-4.31,0-8.495,0-12.612,0c-0.229-0.263-0.517-0.44-0.525-0.629
	c-0.346-5.043-0.138-10.087-0.145-15.264c3.049-0.872,5.96-0.354,8.834-0.437c2.787-0.077,5.59-0.093,8.373,0.058
	C52.015,47.618,50.054,55.746,48.185,61.083z"/>
<path fill="#3FC5F0" d="M79.712,23.542c-1.225,2.096-2.737,3.271-3.972,4.696c-1.252,1.445-2.502,2.888-3.931,4.532
	c-0.532-0.478-1.106-1.032-1.708-1.529c-1.112-0.911-2.148-1.962-3.374-2.635c-3.799-2.094-7.821-0.957-10.061,2.927
	c-0.898,1.554-1.345,3.404-1.981,5.125c-0.322,0.919-0.555,1.877-0.94,2.771c-0.093,0.229-0.604,0.429-0.874,0.37
	c-0.276-0.056-0.578-0.395-0.716-0.689c-0.141-0.314-0.141-0.717-0.141-1.084c-0.014-4.208-0.021-8.413,0.007-12.623
	c0.009-0.587,0.21-1.175,0.304-1.702C55.09,23.243,74.133,23.117,79.712,23.542z"/>
<path fill="#3FC5F0" d="M99.757,60.976c-1.99,0.436-4.045,0.302-6.332,0.071c-0.074-0.536-0.184-0.993-0.208-1.443
	c-0.118-2.878-1.305-5.23-3.143-7.254c-1.637-1.778-3.321-3.5-4.952-5.275c-0.456-0.498-0.795-1.101-1.182-1.64
	c0.338-0.307,0.51-0.58,0.681-0.583c5.009-0.216,10.023-0.114,14.965-0.086C100.321,47.545,100.407,57.181,99.757,60.976z"/>
</svg>
