<?xml version="1.0" encoding="utf-8"?>
<!-- Generator: Adobe Illustrator 16.0.0, SVG Export Plug-In . SVG Version: 6.00 Build 0)  -->
<!DOCTYPE svg PUBLIC "-//W3C//DTD SVG 1.1//EN" "http://www.w3.org/Graphics/SVG/1.1/DTD/svg11.dtd">
<svg version="1.1" id="Layer_1" xmlns="http://www.w3.org/2000/svg" xmlns:xlink="http://www.w3.org/1999/xlink" x="0px" y="0px"
	 width="100px" height="100px" viewBox="0 0 100 100" enable-background="new 0 0 100 100" xml:space="preserve">
<path fill-rule="evenodd" clip-rule="evenodd" fill="#3FC5F0" d="M80.767,35.07c-4.789-1.729-4.789-1.729-9.196,1.047
	c-0.786-0.433-0.565-1.213-0.571-1.865c-0.025-4.539,0-9.068-0.025-13.607c-0.005-1.164-0.124-2.337-0.193-3.594
	c-2.056-0.669-3.968-0.347-5.831-0.393c-2.029-0.056-4.059-0.017-6.09-0.008c-1.885,0.008-3.782,0.024-5.817,0.046
	c-0.197,0.874-0.456,1.535-0.474,2.203c-0.054,2.139-0.015,4.28-0.015,6.489c-1.281,0.826-2.445,1.573-3.856,2.485
	c-0.478-1.085-0.329-2.021-0.352-2.917c-0.025-0.834-0.008-1.676-0.008-2.509c0-0.951,0.03-1.911-0.009-2.864
	c-0.04-0.81-0.15-1.62-0.234-2.564c-3.043-0.723-6.019-0.298-8.962-0.345c-2.83-0.055-5.686-0.158-8.43,0.101
	c-0.85,2.706-0.904,8.668-0.127,11.994c2.753,0.323,5.595,0.127,8.434,0.158c2.737,0.031,5.475,0.009,8.519,0.009
	c-0.206,0.714-0.214,1.313-0.512,1.682c-0.669,0.817-1.478,1.525-2.335,2.384c-4.625,0.464-9.393-0.204-14.331,0.401
	c-0.575,2.565-0.237,5.058-0.299,7.519c-0.056,2.383-0.023,4.775-0.008,7.158c0.015,2.494,0.046,4.987,0.079,7.662
	c0.967,0.149,1.753,0.369,2.548,0.378c3.577,0.039,7.158,0.006,10.738,0.021c1.17,0.009,2.343,0.089,3.705,0.135
	c0.755,4.492,0.659,8.605-2.479,12.122c-3.774,0.479-21.568,0.399-24.242-0.11c-0.787-0.904-0.496-2.03-0.503-3.068
	c-0.024-7.275-0.017-14.559-0.017-21.835c0-10.862,0-21.718,0.017-32.579c0-1.282-0.206-2.612,0.321-3.807
	c2.597-0.496,29.851-0.686,57.302-0.41c1.038,0.008,2.083,0.133,2.989,0.196c0.219,0.433,0.417,0.638,0.417,0.851
	c0.048,8.825,0.069,17.649,0.087,26.483C81.004,34.433,80.854,34.748,80.767,35.07z"/>
<path fill-rule="evenodd" clip-rule="evenodd" fill="#3FC5F0" d="M57.336,65.204c-0.606,0.456-1.085,0.637-1.267,0.976
	c-1.832,3.482-3.673,6.961-5.364,10.516c-0.426,0.904-0.474,2.075-0.417,3.115c0.132,2.493,0.449,4.987,0.654,7.48
	c0.084,1.067,0.171,2.146,0.116,3.216c-0.071,1.52-1.377,2.802-2.704,2.815c-1.159,0.018-2.447-1.085-2.777-2.406
	c-0.087-0.339-0.11-0.708-0.145-1.062c-0.369-3.8-0.69-7.599-1.107-11.39c-0.158-1.392,0.282-2.572,0.887-3.76
	c1.472-2.863,2.917-5.741,4.389-8.605c0.553-1.069,0.937-2.155,0.932-3.405c-0.041-4.886-0.018-9.777-0.041-14.67
	c0-0.456-0.144-0.912-0.245-1.51c-0.677,0.064-1.273,0.047-1.814,0.196c-1.041,0.276-2.087,0.567-3.062,1
	c-2.399,1.045-4.311,0.605-5.985-1.488c-1.26-1.58-2.777-2.948-4.161-4.436c-0.404-0.433-0.804-0.887-1.086-1.408
	c-0.513-0.951-0.181-2.25,0.66-2.887c0.809-0.628,1.779-0.699,2.636-0.006c0.834,0.659,1.564,1.463,2.334,2.201
	c1.189,1.149,2.147,2.557,3.747,3.539c8.515-3.067,17.139-3.036,25.892,0.055c1.361-1.375,2.677-2.745,4.02-4.073
	c0.677-0.662,1.368-1.338,2.132-1.881c0.826-0.583,1.84-0.378,2.61,0.354c0.725,0.692,0.969,1.786,0.496,2.612
	c-0.291,0.511-0.686,0.976-1.085,1.415c-1.298,1.393-2.747,2.676-3.91,4.179c-1.793,2.304-3.814,3.019-6.535,1.745
	c-1.045-0.488-2.243-0.645-3.593-1.006c-0.129,1.062-0.295,1.847-0.308,2.643c-0.167,8.472,0.045,16.941,0.754,25.383
	c0.094,1.18,0.354,2.359,0.66,3.5c0.827,3.116,1.73,6.205,2.579,9.306c0.251,0.92,0.505,1.855,0.59,2.792
	c0.118,1.313-0.81,2.539-2.092,3.014c-1.016,0.368-2.313-0.181-3.005-1.376c-0.353-0.607-0.581-1.309-0.77-1.99
	c-1.063-3.786-2.131-7.575-3.123-11.384c-0.292-1.141-0.402-2.336-0.498-3.516c-0.202-2.62-0.329-5.238-0.518-7.857
	C57.771,66.596,57.557,66.069,57.336,65.204z M42.73,44.556c-1.449-1.509-2.834-2.981-4.24-4.421
	c-0.575-0.582-1.195-1.147-1.866-1.627c-0.211-0.15-0.826-0.12-0.942,0.048c-0.245,0.336-0.284,0.833-0.378,1.265
	c-0.017,0.087,0.08,0.22,0.156,0.308c2.209,2.46,4.366,4.969,6.782,7.039c3.318-0.433,6.041-2.092,8.849-2.406
	c1.015,0.565,0.149,1.912,1.368,2.061c0.504-2.124,0.496-2.124-0.181-4.319C49.031,42,46.269,44.242,42.73,44.556z M70.552,47.332
	c2.302-2.438,4.419-4.671,6.528-6.914c0.155-0.173,0.384-0.402,0.369-0.582c-0.032-0.433-0.11-0.912-0.347-1.25
	c-0.136-0.182-0.738-0.259-0.937-0.109c-0.755,0.559-1.439,1.219-2.121,1.872c-1.45,1.375-2.622,3.051-4.274,4.184
	c-2.926-0.243-5.387-2.078-8.362-2.006c-0.746,1.494-0.58,2.917-0.062,4.932c0.545-1.147,0.857-1.793,1.205-2.516
	C65.218,45.735,67.704,46.484,70.552,47.332z M54.77,42.574c-0.329,1.439-0.58,2.47,0.395,3.579
	c1.227-0.157,2.629,0.481,4.013-0.519c0.056-1,0.464-2.061-0.558-3.06C57.454,42.574,56.211,42.574,54.77,42.574z"/>
<path fill-rule="evenodd" clip-rule="evenodd" fill="#3FC5F0" d="M80.657,68.601c-4.588,0.143-8.959,0.135-13.252,0.017
	c-1.198-2.989-1.464-7.764-0.702-12.255c1.204-0.133,2.469-0.276,3.941-0.447c0.196-1.425,0.394-2.8,0.597-4.241
	c3.902-1.761,5.813-5.796,9.306-8.18C81.137,46.326,81.232,64.575,80.657,68.601z"/>
<path fill-rule="evenodd" clip-rule="evenodd" fill="#3FC5F0" d="M48.786,34.206c0.698-1.274,1.187-2.368,1.857-3.336
	c2.531-3.656,7.456-3.506,9.847,0.252c1.959,3.076,1.077,6.874-1.99,8.589c-3.107,1.739-6.656,0.385-8.212-3.123
	C49.918,35.746,49.967,34.646,48.786,34.206z M59.924,34.615c-2.856-0.26-5.712-0.512-8.638,0.171c0,1.652,0.685,2.682,1.756,3.525
	c0.889,0.693,1.918,0.864,3.002,0.818c1.103-0.047,2.101-0.417,2.855-1.235C59.712,37.029,60.394,36.069,59.924,34.615z"/>
<path fill-rule="evenodd" clip-rule="evenodd" fill="#3FC5F0" d="M59.554,93.023c-1.89,0.748-3.58,0.667-5.158,0.173
	c-0.364-4.481-0.678-8.736-1.05-12.993c-0.148-1.761,0.254-3.256,1.56-4.507C56.47,81.533,58.003,87.242,59.554,93.023z"/>
</svg>
