<?xml version="1.0" encoding="utf-8"?>
<!-- Generator: Adobe Illustrator 16.0.0, SVG Export Plug-In . SVG Version: 6.00 Build 0)  -->
<!DOCTYPE svg PUBLIC "-//W3C//DTD SVG 1.1//EN" "http://www.w3.org/Graphics/SVG/1.1/DTD/svg11.dtd">
<svg version="1.1" id="Layer_1" xmlns="http://www.w3.org/2000/svg" xmlns:xlink="http://www.w3.org/1999/xlink" x="0px" y="0px"
	 width="100px" height="100px" viewBox="0 0 100 100" enable-background="new 0 0 100 100" xml:space="preserve">
<g>
	<path fill-rule="evenodd" clip-rule="evenodd" fill="#3FC5F0" d="M0.397,35.747c2.118-0.788,4.239-1.571,6.354-2.366
		c3.206-1.207,6.406-2.422,9.609-3.629c2.305-0.868,4.613-1.728,6.919-2.592c0.225-0.084,0.446-0.174,0.751-0.447
		c-1.056-0.56-2.061-1.22-3.178-1.661c-1.868-0.736-3.846-1.26-5.706-2.009c-2.736-1.099-3.453-2.859-2.945-5.292
		c0.032-0.157,0.307-0.333,0.512-0.395c5.962-1.82,11.935-3.612,17.895-5.44c9.519-2.92,19.026-5.869,28.543-8.796
		c3.228-0.993,6.466-1.958,9.7-2.933c0.06-0.019,0.13-0.017,0.237,0.06c-0.924,0.369-1.83,0.775-2.775,1.099
		C59.068,3.83,51.843,6.359,44.56,8.757c-9.632,3.17-19.311,6.233-28.971,9.343c-0.102,0.033-0.2,0.07-0.478,0.168
		c1.296,0.345,2.424,0.674,3.57,0.945c7.707,1.818,15.399,3.69,23.137,5.405c3.955,0.875,7.991,1.464,11.996,2.166
		c0.237,0.042,0.544-0.023,0.771-0.123c9.05-4.03,18.097-8.075,27.149-12.11c2.317-1.034,4.648-2.044,6.975-3.063
		c0.096-0.041,0.197-0.063,0.357,0.012c-0.575,0.28-1.147,0.571-1.728,0.843c-6.241,2.915-12.485,5.827-18.726,8.745
		c-0.215,0.101-0.435,0.232-0.587,0.396c-0.589,0.636-1.15,1.291-1.765,1.99c0.186,0.172,0.363,0.336,0.555,0.511
		c3.071-1.366,6.103-2.714,9.133-4.062c3.643-1.62,7.28-3.251,10.935-4.85c0.538-0.237,1.206-0.257,1.738-0.502
		c1.994-0.922,3.948-1.906,5.932-2.84c0.583-0.273,1.216-0.457,1.829-0.683c0.084,0.076,0.166,0.151,0.25,0.226
		c-0.125,0.231-0.178,0.559-0.389,0.679c-1.059,0.615-2.136,1.216-3.253,1.744c-0.739,0.349-1.543,0.603-2.346,0.831
		c-1.389,0.394-2.402,1.195-3.288,2.159c-0.029,0.031-0.08,0.057-0.088,0.092c-0.275,1.198-1.571,1.489-2.457,2.153
		c-0.392,0.292-0.711,0.727-0.89,1.152c-0.259,0.608,0.123,1.037,0.855,1.149c0.287,0.045,0.569,0.113,0.936,0.188
		c-0.093,0.255-0.17,0.472-0.283,0.78c3.359-0.998,6.148-2.89,9.401-3.951c-1.466,0.87-2.898,1.788-4.406,2.6
		c-2.448,1.32-4.928,2.592-7.421,3.847c-5.557,2.799-11.132,5.575-16.694,8.364c-0.495,0.248-0.991,0.506-1.44,0.811
		c-0.276,0.188-0.463,0.477-0.793,0.83c2.057,0.501,3.736,1.602,5.818,1.155c0.54-0.116,1.038-0.382,1.55-0.59
		c6.329-2.571,11.866-6.276,17.782-9.444c1.493-0.8,3.031-1.531,4.551-2.293c0.065,0.056,0.134,0.113,0.2,0.169
		c-0.482,0.488-0.861,1.131-1.465,1.444c-5.16,2.679-10.419,5.216-15.362,8.209c-2.14,1.294-4.296,2.57-6.463,3.832
		c-0.498,0.29-0.712,0.639-0.664,1.144c0.061,0.696,0.094,1.392,0.169,2.085c0.119,1.11,0.259,2.216,0.399,3.393
		c0.558,0.093,1.17,0.124,1.773-0.247c5.453-3.353,10.927-6.68,16.372-10.042c3.394-2.097,6.747-4.243,10.12-6.364
		c0.127-0.081,0.264-0.146,0.399-0.223c0.39,0.968,0.196,1.699-0.658,2.221c-6.282,3.849-12.581,7.68-18.861,11.532
		c-2.879,1.764-5.73,3.561-8.514,5.296c0,0.52,0,0.944,0,1.41c-1.951,0.018-3.771-0.308-5.579-0.75
		c-1.382-0.34-2.776-0.637-4.18-0.901c-0.23-0.045-0.527,0.173-0.858,0.294c0.379,0.381,0.681,0.652,0.932,0.953
		c0.253,0.305,0.204,0.559-0.189,0.799c-0.577,0.357-1.106,0.535-1.759,0.125c-0.327-0.204-0.732-0.312-1.146-0.481
		c-0.122,0.574,0.199,0.925,0.604,1.267c0.537,0.457,1.085,0.914,1.554,1.423c0.322,0.351,0.514,0.79,0.175,1.352
		c-1.23-1.215-2.368-2.411-3.591-3.537c-4.369-4.029-8.737-8.056-13.163-12.036c-2.212-1.989-4.543-3.875-6.832-5.8
		c-0.236-0.198-0.406-0.57-0.897-0.329c-0.455,0.224-0.746,0.488-0.716,0.985c0.139,2.293,0.256,4.588,0.39,6.881
		c0.163,2.812,0.336,5.624,0.503,8.435c0.359,6.064,0.704,12.128,1.105,18.19c0.028,0.427,0.403,0.877,0.732,1.238
		c1.208,1.326,2.709,2.38,4.373,3.228c1.893,0.964,3.849,1.827,5.766,2.759c0.192,0.094,0.289,0.338,0.428,0.514
		c-0.057,0.045-0.112,0.091-0.167,0.136c-0.632-0.308-1.264-0.61-1.895-0.918c-3.185-1.565-6.365-3.136-9.556-4.693
		c-0.391-0.193-0.597-0.4-0.616-0.825c-0.201-4.569-0.413-9.14-0.651-13.706c-0.277-5.307-0.578-10.613-0.879-15.918
		c-0.122-2.134-0.281-4.267-0.396-6.401c-0.009-0.174,0.139-0.405,0.297-0.529c0.831-0.656,1.79-0.799,2.909-0.676
		c3.417,0.378,6.845,0.696,10.273,0.993c1.292,0.111,2.597,0.112,3.899,0.142c0.602,0.013,1.298-0.852,1.056-1.334
		c-0.079-0.153-0.372-0.259-0.593-0.315c-4.903-1.254-9.791-2.566-14.725-3.727c-5.417-1.274-10.873-2.426-16.323-3.597
		c-2.414-0.518-4.853-0.944-7.275-1.434c-0.461-0.092-0.697,0.009-0.773,0.406c1.848,2.037,4.362,3.152,7.068,4.053
		c1.721,0.573,3.395,1.26,5.059,1.954c1.4,0.585,1.987,1.492,2.014,2.972c0.072,3.749,0.437,7.494,0.685,11.24
		c0.21,3.171,0.5,6.337,0.614,9.51c0.157,4.431,0.191,8.865,0.26,13.298c0.016,0.982-0.022,0.974-1.074,1.279
		c-1.286,0.373-2.535,0.033-3.789-0.132c-0.592-0.078-1.17-0.243-1.754-0.368c0.005-0.057,0.01-0.113,0.017-0.169
		c0.705,0,1.412-0.009,2.118,0.003c0.729,0.013,1.459,0.073,2.188,0.058c0.835-0.017,1.477-0.575,1.46-1.307
		c-0.014-0.634-0.176-1.266-0.214-1.903c-0.087-1.455-0.138-2.911-0.206-4.366c-0.003-0.073-0.024-0.148-0.049-0.296
		c-0.385,0.217-0.719,0.404-1.051,0.594c-3.918,2.234-7.831,4.479-11.761,6.697c-0.42,0.236-0.566,0.483-0.561,0.91
		c0.025,1.637,0.005,1.646,1.778,2.218c8.971,2.891,17.933,5.807,26.923,8.652c3.169,1.005,6.41,1.841,9.695,2.773
		c-0.033-1.071-0.573-1.885-1.031-2.722c-0.099-0.18-0.261-0.338-0.329-0.521c-0.059-0.165-0.064-0.5-0.023-0.51
		c0.264-0.054,0.603-0.129,0.804-0.028c0.255,0.128,0.412,0.415,0.6,0.64c0.438,0.533,0.744,0.582,1.357,0.158
		c0.844-0.578,1.672-1.177,2.507-1.766c0.887-0.63,1.75-1.284,2.667-1.875c0.804-0.521,1.75-0.719,2.749-0.752
		c0.169,0.535,0.043,0.868-0.457,1.211c-2.031,1.391-4.029,2.819-6.002,4.271c-0.479,0.352-0.85,0.829-1.222,1.28
		c-0.318,0.384-0.289,0.4,0.166,0.864c0.436-0.405,0.813-0.875,1.312-1.197c1.521-0.986,3.103-1.897,4.635-2.87
		c1.016-0.643,2.004-1.321,2.641-2.309c0.775-1.205,0.822-2.422,0.363-3.738c-0.494-1.428-1.705-2.067-3.166-2.458
		c-1.04-0.279-2.14-0.394-3.19-0.65c-1.067-0.259-2.144-0.534-3.153-0.922c-0.892-0.342-1.241-1.14-1.311-1.919
		c-0.083-0.914-0.037-1.771,1.056-2.445c6.382-3.93,12.746-7.885,19.04-11.922c7.345-4.713,14.611-9.52,21.909-14.288
		c1.569-1.025,3.119-2.07,4.829-3.206c-0.123,0.822,0.033,1.478-0.834,2.015c-5.103,3.165-10.192,6.348-15.229,9.591
		c-7.465,4.809-14.893,9.66-22.31,14.522c-1.874,1.229-3.647,2.575-5.562,3.936c1.279,0.484,2.452,1.023,3.693,1.384
		c2.574,0.747,5.19,1.39,7.781,2.101c0.484,0.132,0.855,0.08,1.259-0.185c2.725-1.78,5.478-3.528,8.186-5.325
		c2.911-1.93,5.782-3.903,8.674-5.854c0.266-0.183,0.543-0.352,0.813-0.525c0.045,0.04,0.085,0.079,0.13,0.118
		c-0.61,0.518-1.221,1.035-1.832,1.553c-3.435,2.91-7.214,5.454-11.036,7.958c-1.407,0.923-2.762,1.904-4.161,2.836
		c-0.387,0.257-0.523,0.545-0.518,0.964c0.101,6.729,0.143,13.46,0.293,20.188c0.095,4.254,0.349,8.502,0.532,12.754
		c0.003,0.011,0.037,0.021,0.114,0.065c1.102-1.009,2.226-2.019,3.32-3.05c2.829-2.661,5.729-5.273,8.454-8.014
		c4.954-4.989,9.816-10.053,14.688-15.105c0.436-0.455,0.868-0.489,1.344-0.253c0.703,0.348,1.354,0.777,2.093,1.212
		C89.313,81.708,79.193,90.854,69.073,100c-0.093,0-0.184,0-0.274,0c-0.455-0.122-0.905-0.255-1.364-0.357
		c-4.054-0.892-8.274-1.258-12.056-3.002c-0.415-0.19-1-0.264-1.453-0.18c-0.558,0.104-0.878-0.108-1.212-0.37
		c-0.761-0.596-0.765-2.788,0.063-3.422c3.093-2.367,6.056-4.859,9.148-7.227c0.905-0.693,1.357-1.374,1.286-2.433
		c-0.093-1.382-0.022-2.771-0.022-4.228c-0.258,0.205-0.505,0.398-0.75,0.594c-2.988,2.378-5.963,4.769-8.968,7.132
		c-3.307,2.605-6.62,5.201-9.97,7.767c-2.145,1.643-4.354,3.224-6.556,4.812c-0.18,0.13-0.64,0.205-0.765,0.106
		c-0.37-0.29-0.609-0.13-0.897,0.052c-1.243,0.784-2.603,0.693-3.883,0.206c-1.469-0.559-2.569-1.571-3.511-2.692
		c-0.55-0.658-0.959-1.356-1.214-2.17c-0.19-0.608-0.676-1.161-0.497-1.83c0.192-0.721,0.221-1.655,0.752-2.094
		c2.223-1.831,4.591-3.528,6.94-5.24c2.931-2.131,5.897-4.225,8.846-6.337c1-0.717,1.994-1.438,3.067-2.213
		c-1.525-0.466-3.244-0.287-4.283-1.658c-3.977,2.718-7.831,5.373-11.707,7.999c-4.241,2.875-8.497,5.729-12.761,8.574
		c-0.271,0.181-0.664,0.254-1.015,0.306c-1.091,0.158-2.017-0.153-2.809-0.818c-1.25-1.051-2.464-2.107-2.146-3.831
		c0.036-0.195-0.048-0.412,0.015-0.596c0.095-0.279,0.187-0.626,0.421-0.79c1.567-1.099,3.148-2.184,4.769-3.219
		c4.312-2.757,8.648-5.481,12.965-8.232c0.965-0.615,1.889-1.281,2.999-2.035c-2.619-0.975-5.041-1.956-7.53-2.785
		c-3.62-1.206-7.287-2.303-10.931-3.454c-0.849-0.269-1.142-0.773-1.001-1.536c0.107-0.587,0.15-1.182,0.257-1.769
		c0.027-0.148,0.151-0.334,0.293-0.407c2.169-1.103,4.36-2.17,6.521-3.286c2.576-1.329,5.132-2.689,7.686-4.057
		c0.173-0.091,0.361-0.331,0.351-0.491c-0.096-1.471-0.199-2.943-0.376-4.409c-0.153-1.271-0.409-2.537-0.623-3.838
		c-3.756,1.254-7.161,2.869-10.486,4.626c-4.023,2.125-8.079,4.203-12.096,6.341c-0.983,0.522-1.945,0.707-3.071,0.345
		c-0.09-2.077-0.196-4.169-0.271-6.262c-0.154-4.329-0.291-8.66-0.441-12.99c-0.009-0.231-0.079-0.463-0.119-0.695
		C0.397,37.187,0.397,36.467,0.397,35.747z M31.413,91.221c-0.713-0.189-1.417-0.438-2.146-0.544
		c-0.359-0.055-0.841,0.063-1.143,0.253c-0.937,0.598-1.17,2.104-0.48,3.08c0-0.368,0.014-0.658-0.005-0.947
		c-0.014-0.205-0.187-0.512-0.089-0.597c0.525-0.451,1.044-1.005,1.697-1.213c0.647-0.208,1.45-0.049,2.185-0.049
		c0.253,0.214,0.5,0.428,0.755,0.636c0.282,0.229,0.593,0.433,0.847,0.683c1.09,1.058,1.574,2.364,1.863,3.725
		c0.058,0.272-0.037,0.651-0.228,0.868c-0.448,0.511-0.994,0.953-1.473,1.396c0.583,0.155,1.307,0.222,1.81-0.394
		c0.227-0.276,0.348-0.655,0.39-1c0.144-1.183,0.249-2.341-0.728-3.381C33.73,92.736,32.71,91.851,31.413,91.221z M2.382,56.862
		c4.738-2.245,9.357-4.433,13.955-6.609c-3.484-3.571-7.33-6.694-11.682-9.504c0,0.314-0.004,0.525,0,0.735
		c0.101,4.314,0.209,8.625,0.285,12.938c0.006,0.37-0.208,0.743-0.319,1.115c-0.086-0.01-0.173-0.021-0.261-0.034
		c-0.045-0.247-0.104-0.493-0.133-0.743c-0.165-1.449-0.377-2.896-0.468-4.349c-0.217-3.487-0.385-6.976-0.55-10.466
		c-0.04-0.848,0.603-1.264,1.511-1.049c4.407,1.035,8.811,2.072,13.221,3.09c0.245,0.056,0.721,0.011,0.771-0.1
		c0.107-0.232,0.048-0.548-0.027-0.811c-0.052-0.18-0.26-0.32-0.376-0.49c-0.215-0.311-0.142-0.568,0.29-0.611
		c0.424-0.042,0.863-0.027,1.29,0.008c0.396,0.034,0.612,0.205,0.485,0.611c-0.117,0.377-0.16,0.771-0.231,1.14
		c0.416-0.141,0.796-0.258,1.168-0.396c1.235-0.456,2.514-0.846,3.683-1.41c0.771-0.372,1.13-1.091,0.977-2.092
		c-0.562,0.291-1.03,0.51-1.472,0.766c-0.71,0.412-1.385,0.9-2.451,0.524c0.27-0.252,0.441-0.502,0.694-0.635
		c0.913-0.478,1.834-0.951,2.794-1.347c0.379-0.155,0.52-0.296,0.493-0.644c-0.174-2.188-0.309-4.378-0.507-6.563
		c-0.075-0.825-0.288-1.641-0.448-2.518c-7.165,2.792-14.25,5.553-21.412,8.344c3.696,1.091,7.265,2.144,10.833,3.196
		c-0.019,0.065-0.037,0.13-0.056,0.196c-0.854-0.073-1.727-0.073-2.56-0.231c-2.495-0.473-4.972-1.018-7.461-1.515
		c-0.832-0.166-1.679-0.275-2.637-0.429C1.507,43.68,2.078,50.218,2.382,56.862z M68.149,98.623c0-1.01,0.013-1.945-0.002-2.879
		c-0.153-8.888-0.313-17.776-0.465-26.665c-0.026-1.652,0.088-3.313-0.766-4.876c-0.166-0.304-0.299-0.473-0.671-0.56
		c-3.817-0.879-7.631-1.775-11.444-2.662c-0.14-0.034-0.292-0.028-0.414-0.038c-0.053,0.909,0.479,1.373,1.375,1.64
		c1.662,0.493,3.314,1.015,4.961,1.546c1.639,0.526,3.271,1.078,4.804,1.586c0,0.559-0.005,0.996,0.002,1.433
		c0.078,4.533,0.19,9.064,0.23,13.595c0.039,4.633,0.016,9.266,0.001,13.897c-0.001,0.9-0.089,1.803-0.137,2.703
		c-0.072,0.011-0.146,0.023-0.218,0.037c-0.153-0.371-0.305-0.741-0.475-1.153c0.025,0.012-0.015-0.019-0.057-0.021
		c-3.459-0.195-6.508-1.463-9.525-2.808c-0.188-0.082-0.291-0.313-0.431-0.477c0.054-0.067,0.107-0.137,0.16-0.203
		c0.673,0.064,1.365,0.057,2.008,0.211c1.252,0.296,2.488,0.656,3.708,1.041c0.926,0.29,1.845,0.34,2.792,0.225
		c0-2.991,0-5.932,0-8.968c-0.298,0.229-0.517,0.392-0.729,0.563c-2.812,2.256-5.595,4.536-8.443,6.753
		c-0.795,0.617-1.138,1.356-1.38,2.219C57.859,96.665,62.926,97.789,68.149,98.623z M50.734,82.988
		c-0.86-1.542-2.185-2.43-4.069-2.781c-1.163-0.216-2.144-0.128-3.152,0.473c-3.645,2.163-7.272,4.343-10.493,6.991
		c-0.732,0.602-1.462,1.206-2.229,1.838c2.676,0.979,4.365,2.759,5.901,4.735C41.418,90.456,46.071,86.726,50.734,82.988z
		 M17.843,88.099c0.216-0.141,0.399-0.257,0.58-0.379c5.227-3.49,10.452-6.982,15.677-10.473c0.686-0.46,0.755-0.908,0.005-1.271
		c-0.756-0.366-1.637-0.555-2.486-0.747c-0.313-0.071-0.743-0.022-1.025,0.119c-4.827,2.405-9.28,5.304-13.799,8.114
		c-0.981,0.611-1.899,1.3-2.907,1.992C15.239,86.358,16.538,87.229,17.843,88.099z M69.027,44.016c0-2.274,0.006-4.448-0.016-6.622
		c0-0.144-0.184-0.376-0.334-0.414c-1.988-0.496-3.985-0.965-5.986-1.441c-0.04,0.1-0.078,0.153-0.086,0.21
		c-0.291,2.303,0.247,4.566,0.475,6.843c0.012,0.115,0.298,0.265,0.481,0.306c1.081,0.238,2.17,0.45,3.254,0.671
		C67.519,43.712,68.221,43.854,69.027,44.016z M63.559,77.201c-0.095-0.043-0.187-0.087-0.278-0.132
		c-7.575,5.352-14.35,11.457-21.323,17.382c0.141-0.013,0.245-0.069,0.334-0.138c6.921-5.415,13.845-10.827,20.752-16.257
		C63.299,77.854,63.391,77.489,63.559,77.201z M33.543,95.956c-0.007-0.023-0.004-0.192-0.098-0.277
		c-0.743-0.682-1.621-1.149-2.729-1.187c-0.622-0.021-1.104,0.236-1.416,0.695c-0.079,0.117-0.081,0.388,0.011,0.459
		c0.693,0.539,1.364,1.124,2.149,1.544C32.351,97.665,33.564,96.962,33.543,95.956z M38.737,94.931
		c4.25-3.162,8.334-6.474,12.078-10.098C46.318,87.766,42.437,91.268,38.737,94.931z M23.303,86.118
		c0.024,0.019,0.049,0.041,0.074,0.06c0.04-0.011,0.089-0.011,0.12-0.03c3.842-2.565,7.685-5.128,11.513-7.71
		c0.192-0.129,0.243-0.42,0.359-0.637c-0.066-0.036-0.131-0.071-0.198-0.107C31.214,80.502,27.258,83.309,23.303,86.118z"/>
	<path fill-rule="evenodd" clip-rule="evenodd" fill="#3FC5F0" d="M51.977,56.821c-4.218,2.755-7.949,6.141-12.949,7.895
		c-0.075-0.044-0.147-0.087-0.221-0.13c0.154-0.256,0.231-0.615,0.473-0.752c4.026-2.266,8.072-4.505,12.117-6.748
		C51.58,56.984,51.783,56.908,51.977,56.821z"/>
	<path fill-rule="evenodd" clip-rule="evenodd" fill="#3FC5F0" d="M94.284,45.208c-0.15,1.512-2.937,3.576-5.891,4.522
		C90.034,47.832,91.947,46.391,94.284,45.208z"/>
	<path fill-rule="evenodd" clip-rule="evenodd" fill="#3FC5F0" d="M57.859,53.266c-0.926,0.948-1.792,1.671-3.13,1.825
		C54.835,54.413,55.834,53.817,57.859,53.266z"/>
	<path fill-rule="evenodd" clip-rule="evenodd" fill="#3FC5F0" d="M99.896,20.664c-0.315,0.254-0.56,0.538-0.886,0.687
		c-0.25,0.115-0.676,0.17-0.896,0.06c-0.426-0.214-0.075-0.462,0.118-0.672C98.769,20.154,99.3,20.115,99.896,20.664z"/>
	<path fill-rule="evenodd" clip-rule="evenodd" fill="#3FC5F0" d="M97.74,43.66c-0.242-0.32-0.472-0.561-0.438-0.593
		c0.28-0.271,0.59-0.535,0.944-0.723c0.071-0.039,0.375,0.253,0.569,0.394C98.506,43.004,98.196,43.269,97.74,43.66z"/>
	<path fill-rule="evenodd" clip-rule="evenodd" fill="#3FC5F0" d="M98.692,6.846c-0.349,0.72-0.705,0.911-1.483,0.823
		C97.12,6.961,97.747,6.596,98.692,6.846z"/>
	<path fill-rule="evenodd" clip-rule="evenodd" fill="#3FC5F0" d="M68.149,98.623c-5.224-0.834-10.29-1.958-15.115-3.861
		c0.242-0.862,0.585-1.602,1.38-2.219c2.849-2.217,5.632-4.497,8.443-6.753c0.213-0.171,0.432-0.333,0.729-0.563
		c0,3.036,0,5.977,0,8.968c-0.947,0.115-1.866,0.065-2.792-0.225c-1.22-0.385-2.456-0.745-3.708-1.041
		c-0.643-0.154-1.335-0.146-2.008-0.211c-0.053,0.066-0.106,0.136-0.16,0.203c0.14,0.163,0.243,0.395,0.431,0.477
		c3.018,1.345,6.066,2.612,9.525,2.808c0.042,0.002,0.082,0.032,0.057,0.021c0.17,0.412,0.321,0.782,0.475,1.153
		c0.072-0.014,0.146-0.026,0.218-0.037c0.048-0.9,0.136-1.803,0.137-2.703c0.015-4.632,0.038-9.265-0.001-13.897
		c-0.04-4.53-0.152-9.062-0.23-13.595c-0.007-0.437-0.002-0.874-0.002-1.433c-1.532-0.508-3.165-1.06-4.804-1.586
		c-1.646-0.531-3.299-1.053-4.961-1.546c-0.896-0.267-1.428-0.73-1.375-1.64c0.122,0.01,0.274,0.004,0.414,0.038
		c3.813,0.887,7.627,1.783,11.444,2.662c0.372,0.087,0.505,0.256,0.671,0.56c0.854,1.563,0.739,3.224,0.766,4.876
		c0.151,8.889,0.312,17.777,0.465,26.665C68.162,96.678,68.149,97.613,68.149,98.623z"/>
	<path fill-rule="evenodd" clip-rule="evenodd" fill="#3FC5F0" d="M17.843,88.099c-1.305-0.87-2.604-1.74-3.954-2.645
		c1.008-0.692,1.926-1.381,2.907-1.992c4.519-2.811,8.972-5.709,13.799-8.114c0.282-0.142,0.712-0.19,1.025-0.119
		c0.849,0.192,1.73,0.381,2.486,0.747c0.75,0.363,0.681,0.812-0.005,1.271c-5.226,3.49-10.45,6.982-15.677,10.473
		C18.242,87.842,18.059,87.958,17.843,88.099z"/>
	<path fill-rule="evenodd" clip-rule="evenodd" fill="#3FC5F0" d="M63.559,77.201c-0.168,0.288-0.26,0.653-0.516,0.855
		c-6.907,5.43-13.831,10.842-20.752,16.257c-0.089,0.068-0.193,0.125-0.334,0.138c6.974-5.925,13.748-12.03,21.323-17.382
		C63.372,77.114,63.464,77.158,63.559,77.201z"/>
	<path fill-rule="evenodd" clip-rule="evenodd" fill="#3FC5F0" d="M33.543,95.956c0.021,1.006-1.192,1.709-2.082,1.234
		c-0.785-0.42-1.456-1.005-2.149-1.544c-0.092-0.071-0.09-0.342-0.011-0.459c0.312-0.459,0.793-0.717,1.416-0.695
		c1.107,0.037,1.985,0.505,2.729,1.187C33.539,95.764,33.536,95.933,33.543,95.956z"/>
	<path fill-rule="evenodd" clip-rule="evenodd" fill="#3FC5F0" d="M31.417,91.218c1.293,0.633,2.313,1.519,3.251,2.519
		c0.976,1.04,0.872,2.198,0.728,3.381c-0.042,0.345-0.163,0.724-0.39,1c-0.503,0.615-1.227,0.549-1.81,0.394
		c0.479-0.442,1.025-0.885,1.473-1.396c0.191-0.217,0.286-0.596,0.228-0.868c-0.289-1.36-0.773-2.667-1.863-3.725
		c-0.254-0.25-0.565-0.453-0.847-0.683c-0.256-0.208-0.502-0.422-0.755-0.636L31.417,91.218z"/>
	<path fill-rule="evenodd" clip-rule="evenodd" fill="#3FC5F0" d="M23.303,86.118c3.955-2.81,7.912-5.616,11.868-8.425
		c0.066,0.036,0.132,0.071,0.198,0.107c-0.116,0.217-0.167,0.508-0.359,0.637c-3.828,2.582-7.67,5.145-11.513,7.71
		c-0.031,0.02-0.08,0.02-0.12,0.03C23.352,86.159,23.327,86.137,23.303,86.118z"/>
	<path fill-rule="evenodd" clip-rule="evenodd" fill="#3FC5F0" d="M31.431,91.204c-0.734,0-1.537-0.159-2.185,0.049
		c-0.652,0.208-1.172,0.762-1.697,1.213c-0.098,0.085,0.075,0.392,0.089,0.597c0.019,0.289,0.005,0.579,0.005,0.947
		c-0.69-0.977-0.457-2.482,0.48-3.08c0.301-0.19,0.784-0.308,1.143-0.253c0.729,0.105,1.433,0.354,2.148,0.544
		C31.417,91.218,31.431,91.204,31.431,91.204z"/>
</g>
</svg>
